<?xml version="1.0" encoding="UTF-8" standalone="no"?><svg width="60px" height="60px" viewBox="0 0 60 60" version="1.1" xmlns="http://www.w3.org/2000/svg" xmlns:xlink="http://www.w3.org/1999/xlink" xmlns:sketch="http://www.bohemiancoding.com/sketch/ns">        <title>Oval + Oval + Shape 2</title>    <desc>Created with Sketch.</desc>    <defs>        <linearGradient x1="50%" y1="4.70663672e-09%" x2="50%" y2="100%" id="linearGradient-1">            <stop stop-color="#FFFFFF" offset="0%"></stop>            <stop stop-color="#BEBEBE" offset="100%"></stop>        </linearGradient>        <circle id="path-2" cx="30" cy="30" r="30"></circle>        <linearGradient x1="50%" y1="0%" x2="50%" y2="100%" id="linearGradient-3">            <stop stop-color="#FFFFFF" offset="0%"></stop>            <stop stop-color="#EBEBEB" offset="100%"></stop>        </linearGradient>        <linearGradient x1="50%" y1="0%" x2="50%" y2="51.3432717%" id="linearGradient-4">            <stop stop-color="#000000" stop-opacity="0.05" offset="0%"></stop>            <stop stop-color="#FFFFFF" stop-opacity="0" offset="100%"></stop>        </linearGradient>        <circle id="path-5" cx="30" cy="30" r="28.5"></circle>        <filter x="-50%" y="-50%" width="200%" height="200%" filterUnits="objectBoundingBox" id="filter-6">            <feOffset dx="0" dy="3" in="SourceAlpha" result="shadowOffsetInner1"></feOffset>            <feGaussianBlur stdDeviation="3" in="shadowOffsetInner1" result="shadowBlurInner1"></feGaussianBlur>            <feComposite in="shadowBlurInner1" in2="SourceAlpha" operator="arithmetic" k2="-1" k3="1" result="shadowInnerInner1"></feComposite>            <feColorMatrix values="0 0 0 0 0   0 0 0 0 0   0 0 0 0 0  0 0 0 0.105 0" in="shadowInnerInner1" type="matrix" result="shadowMatrixInner1"></feColorMatrix>            <feMerge>                <feMergeNode in="SourceGraphic"></feMergeNode>                <feMergeNode in="shadowMatrixInner1"></feMergeNode>            </feMerge>        </filter>    </defs>    <g id="Page-1" stroke="none" stroke-width="1" fill="none" fill-rule="evenodd" sketch:type="MSPage">        <g id="Oval-+-Oval-+-Shape-2" sketch:type="MSLayerGroup">            <g id="Oval">                <use fill="url(#linearGradient-1)" fill-rule="evenodd" sketch:type="MSShapeGroup" xlink:href="#path-2"></use>                <use fill="none" xlink:href="#path-2"></use>            </g>            <g id="Oval">                <use fill="url(#linearGradient-3)" sketch:type="MSShapeGroup" xlink:href="#path-5"></use>                <use fill="url(#linearGradient-4)" xlink:href="#path-5"></use>            </g>            <path d="M33.024857,33.8695876 L33.024857,50.9987399 C33.024857,51.3251952 31.6102173,51.5863595 29.9997043,51.6081232 C29.9997043,51.6081232 26.9745517,51.3251952 26.9745517,50.9987399 L26.9745517,33.8695876 L12.0664252,19.2879165 C11.8270247,19.0485159 12.5887538,17.9168041 13.7639929,16.741565 C14.9392321,15.5663258 16.0927076,14.8045967 16.3103444,15.0439973 L29.9779406,28.3851382 L43.6455368,15.0439973 C43.8849374,14.8045967 45.0166492,15.5663258 46.1918884,16.741565 C47.3671275,17.9168041 48.1506203,19.0485159 47.9329834,19.2879165 L33.024857,33.8695876 Z" id="Shape" stroke="#FFFFFF" stroke-width="2" opacity="0.7" fill="#FFFFFF" sketch:type="MSShapeGroup"></path>            <path d="M33.024857,33.8695876 L33.024857,50.9987399 C33.024857,51.3251952 31.6102173,51.5863595 29.9997043,51.6081232 C29.9997043,51.6081232 26.9745517,51.3251952 26.9745517,50.9987399 L26.9745517,33.8695876 L12.0664252,19.2879165 C11.8270247,19.0485159 12.5887538,17.9168041 13.7639929,16.741565 C14.9392321,15.5663258 16.0927076,14.8045967 16.3103444,15.0439973 L29.9779406,28.3851382 L43.6455368,15.0439973 C43.8849374,14.8045967 45.0166492,15.5663258 46.1918884,16.741565 C47.3671275,17.9168041 48.1506203,19.0485159 47.9329834,19.2879165 L33.024857,33.8695876 Z" id="Shape-2" fill="#EC1C24" filter="url(#filter-6)" sketch:type="MSShapeGroup"></path>        </g>    </g></svg>
